# xmcd CD Database Entry
#
# Track frame offsets:
# 183
# 8405
# 19813
# 31665
# 43745
# 57708
# 71835
# 80908
# 89993
# 104125
# 118988
# 134218
# 144650
# 153338
# 164308
# 174003
# 188838
# 197490
#
# Disc length: 2785 seconds
#
# Revision: 1
# Processed by: cddbd v1.4PL0 Copyright (c) Steve Scherf et al.
# Submitted via: tcd 2.0b
#
DISCID=090adf12
DTITLE=Sergio Mendes and Brasil66 - POPULAR BIG HITS
DYEAR=1900
DGENRE=
TTITLE0=ONE NOTE SAMBA
TTITLE1=AQUA DE BEBER
TTITLE2=MAIS QUE NADA
TTITLE3=THE JOKER
TTITLE4=GOING OUT OF MY HEAD
TTITLE5=DAY TRIPPER
TTITLE6=O PATO
TTITLE7=SO DANCO SAMBA
TTITLE8=NIGHT AND DAY
TTITLE9=CONSTANT RAIN
TTITLE10=FOR ME
TTITLE11=WAVE
TTITLE12=BIM-BOM
TTITLE13=CINNAMON AND CLOVE
TTITLE14=TRISTE
TTITLE15=BERIMBAU
TTITLE16=GENTE
TTITLE17=SLOW HOT WIND
EXTD=
EXTT0=
EXTT1=
EXTT2=
EXTT3=
EXTT4=
EXTT5=
EXTT6=
EXTT7=
EXTT8=
EXTT9=
EXTT10=
EXTT11=
EXTT12=
EXTT13=
EXTT14=
EXTT15=
EXTT16=
EXTT17=
PLAYORDER=
